<?xml version="1.0" encoding="UTF-8"?>
<!DOCTYPE svg PUBLIC "-//W3C//DTD SVG 1.1//EN" "http://www.w3.org/Graphics/SVG/1.1/DTD/svg11.dtd">
<svg version="1.2" width="105mm" height="110mm" viewBox="0 0 10500 11000" preserveAspectRatio="xMidYMid" fill-rule="evenodd" stroke-width="28.222" stroke-linejoin="round" xmlns="http://www.w3.org/2000/svg" xmlns:ooo="http://xml.openoffice.org/svg/export" xmlns:xlink="http://www.w3.org/1999/xlink" xmlns:presentation="http://sun.com/xmlns/staroffice/presentation" xmlns:smil="http://www.w3.org/2001/SMIL20/" xmlns:anim="urn:oasis:names:tc:opendocument:xmlns:animation:1.0" xml:space="preserve">
 <defs class="ClipPathGroup">
  <clipPath id="presentation_clip_path" clipPathUnits="userSpaceOnUse">
   <rect x="0" y="0" width="10500" height="11000"/>
  </clipPath>
  <clipPath id="presentation_clip_path_shrink" clipPathUnits="userSpaceOnUse">
   <rect x="10" y="11" width="10479" height="10978"/>
  </clipPath>
 </defs>
 <defs class="TextShapeIndex">
  <g ooo:slide="id1" ooo:id-list="id3 id4 id5 id6 id7 id8 id9 id10 id11 id12 id13 id14 id15 id16 id17 id18 id19 id20 id21 id22 id23 id24 id25 id26 id27 id28 id29 id30 id31 id32 id33 id34 id35 id36 id37 id38 id39 id40 id41 id42 id43 id44 id45 id46 id47"/>
 </defs>
 <defs class="EmbeddedBulletChars">
  <g id="bullet-char-template-57356" transform="scale(0.00048828125,-0.00048828125)">
   <path d="M 580,1141 L 1163,571 580,0 -4,571 580,1141 Z"/>
  </g>
  <g id="bullet-char-template-57354" transform="scale(0.00048828125,-0.00048828125)">
   <path d="M 8,1128 L 1137,1128 1137,0 8,0 8,1128 Z"/>
  </g>
  <g id="bullet-char-template-10146" transform="scale(0.00048828125,-0.00048828125)">
   <path d="M 174,0 L 602,739 174,1481 1456,739 174,0 Z M 1358,739 L 309,1346 659,739 1358,739 Z"/>
  </g>
  <g id="bullet-char-template-10132" transform="scale(0.00048828125,-0.00048828125)">
   <path d="M 2015,739 L 1276,0 717,0 1260,543 174,543 174,936 1260,936 717,1481 1274,1481 2015,739 Z"/>
  </g>
  <g id="bullet-char-template-10007" transform="scale(0.00048828125,-0.00048828125)">
   <path d="M 0,-2 C -7,14 -16,27 -25,37 L 356,567 C 262,823 215,952 215,954 215,979 228,992 255,992 264,992 276,990 289,987 310,991 331,999 354,1012 L 381,999 492,748 772,1049 836,1024 860,1049 C 881,1039 901,1025 922,1006 886,937 835,863 770,784 769,783 710,716 594,584 L 774,223 C 774,196 753,168 711,139 L 727,119 C 717,90 699,76 672,76 641,76 570,178 457,381 L 164,-76 C 142,-110 111,-127 72,-127 30,-127 9,-110 8,-76 1,-67 -2,-52 -2,-32 -2,-23 -1,-13 0,-2 Z"/>
  </g>
  <g id="bullet-char-template-10004" transform="scale(0.00048828125,-0.00048828125)">
   <path d="M 285,-33 C 182,-33 111,30 74,156 52,228 41,333 41,471 41,549 55,616 82,672 116,743 169,778 240,778 293,778 328,747 346,684 L 369,508 C 377,444 397,411 428,410 L 1163,1116 C 1174,1127 1196,1133 1229,1133 1271,1133 1292,1118 1292,1087 L 1292,965 C 1292,929 1282,901 1262,881 L 442,47 C 390,-6 338,-33 285,-33 Z"/>
  </g>
  <g id="bullet-char-template-9679" transform="scale(0.00048828125,-0.00048828125)">
   <path d="M 813,0 C 632,0 489,54 383,161 276,268 223,411 223,592 223,773 276,916 383,1023 489,1130 632,1184 813,1184 992,1184 1136,1130 1245,1023 1353,916 1407,772 1407,592 1407,412 1353,268 1245,161 1136,54 992,0 813,0 Z"/>
  </g>
  <g id="bullet-char-template-8226" transform="scale(0.00048828125,-0.00048828125)">
   <path d="M 346,457 C 273,457 209,483 155,535 101,586 74,649 74,723 74,796 101,859 155,911 209,963 273,989 346,989 419,989 480,963 531,910 582,859 608,796 608,723 608,648 583,586 532,535 482,483 420,457 346,457 Z"/>
  </g>
  <g id="bullet-char-template-8211" transform="scale(0.00048828125,-0.00048828125)">
   <path d="M -4,459 L 1135,459 1135,606 -4,606 -4,459 Z"/>
  </g>
  <g id="bullet-char-template-61548" transform="scale(0.00048828125,-0.00048828125)">
   <path d="M 173,740 C 173,903 231,1043 346,1159 462,1274 601,1332 765,1332 928,1332 1067,1274 1183,1159 1299,1043 1357,903 1357,740 1357,577 1299,437 1183,322 1067,206 928,148 765,148 601,148 462,206 346,322 231,437 173,577 173,740 Z"/>
  </g>
 </defs>
 <g>
  <g id="id2" class="Master_Slide">
   <g id="bg-id2" class="Background"/>
   <g id="bo-id2" class="BackgroundObjects"/>
  </g>
 </g>
 <g class="SlideGroup">
  <g>
   <g id="container-id1">
    <g id="id1" class="Slide" clip-path="url(#presentation_clip_path)">
     <g class="Page">
      <g class="com.sun.star.drawing.CustomShape">
       <g id="id3">
        <rect class="BoundingBox" stroke="none" fill="none" x="350" y="300" width="9652" height="10202"/>
        <path fill="rgb(255,255,255)" stroke="none" d="M 5175,350 C 2570,350 400,923 400,1612 L 400,9188 C 400,9877 2570,10451 5175,10451 7780,10451 9951,9877 9951,9188 L 9951,1612 C 9951,923 7780,350 5175,350 L 5175,350 Z"/>
        <path fill="none" stroke="rgb(0,0,0)" stroke-width="100" stroke-linejoin="round" d="M 5303,350 C 5260,350 5218,350 5175,350 5107,350 5039,350 4972,351"/>
        <path fill="none" stroke="rgb(0,0,0)" stroke-width="100" stroke-linejoin="round" d="M 4771,355 C 4705,356 4638,358 4572,360"/>
        <path fill="none" stroke="rgb(0,0,0)" stroke-width="100" stroke-linejoin="round" d="M 4374,368 C 4306,371 4238,375 4171,379"/>
        <path fill="none" stroke="rgb(0,0,0)" stroke-width="100" stroke-linejoin="round" d="M 3971,392 C 3905,396 3839,401 3774,407"/>
        <path fill="none" stroke="rgb(0,0,0)" stroke-width="100" stroke-linejoin="round" d="M 3574,425 C 3506,431 3439,438 3372,446"/>
        <path fill="none" stroke="rgb(0,0,0)" stroke-width="100" stroke-linejoin="round" d="M 3175,469 C 3109,477 3045,485 2981,494"/>
        <path fill="none" stroke="rgb(0,0,0)" stroke-width="100" stroke-linejoin="round" d="M 2777,524 C 2710,535 2644,546 2580,557"/>
        <path fill="none" stroke="rgb(0,0,0)" stroke-width="100" stroke-linejoin="round" d="M 2388,592 C 2320,605 2252,619 2186,633"/>
        <path fill="none" stroke="rgb(0,0,0)" stroke-width="100" stroke-linejoin="round" d="M 1991,677 C 1927,693 1864,708 1804,724"/>
        <path fill="none" stroke="rgb(0,0,0)" stroke-width="100" stroke-linejoin="round" d="M 1603,781 C 1538,800 1476,820 1415,841"/>
        <path fill="none" stroke="rgb(0,0,0)" stroke-width="100" stroke-linejoin="round" d="M 1226,909 C 1160,935 1099,960 1040,987"/>
        <path fill="none" stroke="rgb(0,0,0)" stroke-width="100" stroke-linejoin="round" d="M 862,1076 C 800,1110 744,1146 693,1181"/>
        <path fill="none" stroke="rgb(0,0,0)" stroke-width="100" stroke-linejoin="round" d="M 539,1313 C 489,1366 452,1420 429,1475"/>
        <path fill="none" stroke="rgb(0,0,0)" stroke-width="100" stroke-linejoin="round" d="M 400,1669 L 400,1869"/>
        <path fill="none" stroke="rgb(0,0,0)" stroke-width="100" stroke-linejoin="round" d="M 400,2069 L 400,2269"/>
        <path fill="none" stroke="rgb(0,0,0)" stroke-width="100" stroke-linejoin="round" d="M 400,2469 L 400,2669"/>
        <path fill="none" stroke="rgb(0,0,0)" stroke-width="100" stroke-linejoin="round" d="M 400,2869 L 400,3069"/>
        <path fill="none" stroke="rgb(0,0,0)" stroke-width="100" stroke-linejoin="round" d="M 400,3269 L 400,3469"/>
        <path fill="none" stroke="rgb(0,0,0)" stroke-width="100" stroke-linejoin="round" d="M 400,3669 L 400,3869"/>
        <path fill="none" stroke="rgb(0,0,0)" stroke-width="100" stroke-linejoin="round" d="M 400,4069 L 400,4269"/>
        <path fill="none" stroke="rgb(0,0,0)" stroke-width="100" stroke-linejoin="round" d="M 400,4469 L 400,4669"/>
        <path fill="none" stroke="rgb(0,0,0)" stroke-width="100" stroke-linejoin="round" d="M 400,4869 L 400,5069"/>
        <path fill="none" stroke="rgb(0,0,0)" stroke-width="100" stroke-linejoin="round" d="M 400,5269 L 400,5469"/>
        <path fill="none" stroke="rgb(0,0,0)" stroke-width="100" stroke-linejoin="round" d="M 400,5669 L 400,5869"/>
        <path fill="none" stroke="rgb(0,0,0)" stroke-width="100" stroke-linejoin="round" d="M 400,6069 L 400,6269"/>
        <path fill="none" stroke="rgb(0,0,0)" stroke-width="100" stroke-linejoin="round" d="M 400,6469 L 400,6669"/>
        <path fill="none" stroke="rgb(0,0,0)" stroke-width="100" stroke-linejoin="round" d="M 400,6869 L 400,7069"/>
        <path fill="none" stroke="rgb(0,0,0)" stroke-width="100" stroke-linejoin="round" d="M 400,7269 L 400,7469"/>
        <path fill="none" stroke="rgb(0,0,0)" stroke-width="100" stroke-linejoin="round" d="M 400,7669 L 400,7869"/>
        <path fill="none" stroke="rgb(0,0,0)" stroke-width="100" stroke-linejoin="round" d="M 400,8069 L 400,8269"/>
        <path fill="none" stroke="rgb(0,0,0)" stroke-width="100" stroke-linejoin="round" d="M 400,8469 L 400,8669"/>
        <path fill="none" stroke="rgb(0,0,0)" stroke-width="100" stroke-linejoin="round" d="M 400,8869 L 400,9069"/>
        <path fill="none" stroke="rgb(0,0,0)" stroke-width="100" stroke-linejoin="round" d="M 409,9266 C 424,9326 454,9385 500,9442"/>
        <path fill="none" stroke="rgb(0,0,0)" stroke-width="100" stroke-linejoin="round" d="M 648,9585 C 695,9622 748,9657 806,9692"/>
        <path fill="none" stroke="rgb(0,0,0)" stroke-width="100" stroke-linejoin="round" d="M 987,9788 C 1043,9815 1103,9842 1166,9867"/>
        <path fill="none" stroke="rgb(0,0,0)" stroke-width="100" stroke-linejoin="round" d="M 1360,9941 C 1419,9961 1480,9982 1543,10001"/>
        <path fill="none" stroke="rgb(0,0,0)" stroke-width="100" stroke-linejoin="round" d="M 1740,10059 C 1802,10076 1866,10093 1932,10109"/>
        <path fill="none" stroke="rgb(0,0,0)" stroke-width="100" stroke-linejoin="round" d="M 2125,10154 C 2191,10169 2258,10183 2326,10196"/>
        <path fill="none" stroke="rgb(0,0,0)" stroke-width="100" stroke-linejoin="round" d="M 2520,10233 C 2584,10245 2649,10256 2715,10266"/>
        <path fill="none" stroke="rgb(0,0,0)" stroke-width="100" stroke-linejoin="round" d="M 2917,10297 C 2982,10307 3048,10316 3114,10324"/>
        <path fill="none" stroke="rgb(0,0,0)" stroke-width="100" stroke-linejoin="round" d="M 3311,10348 C 3377,10356 3444,10363 3511,10370"/>
        <path fill="none" stroke="rgb(0,0,0)" stroke-width="100" stroke-linejoin="round" d="M 3714,10389 C 3778,10395 3844,10400 3910,10405"/>
        <path fill="none" stroke="rgb(0,0,0)" stroke-width="100" stroke-linejoin="round" d="M 4109,10418 C 4176,10423 4243,10426 4311,10430"/>
        <path fill="none" stroke="rgb(0,0,0)" stroke-width="100" stroke-linejoin="round" d="M 4511,10438 C 4577,10441 4643,10443 4709,10445"/>
        <path fill="none" stroke="rgb(0,0,0)" stroke-width="100" stroke-linejoin="round" d="M 4910,10449 C 4977,10450 5044,10451 5112,10451"/>
        <path fill="none" stroke="rgb(0,0,0)" stroke-width="100" stroke-linejoin="round" d="M 5315,10450 C 5383,10450 5450,10449 5517,10448"/>
        <path fill="none" stroke="rgb(0,0,0)" stroke-width="100" stroke-linejoin="round" d="M 5716,10443 C 5782,10441 5848,10438 5913,10435"/>
        <path fill="none" stroke="rgb(0,0,0)" stroke-width="100" stroke-linejoin="round" d="M 6116,10426 C 6184,10422 6251,10418 6317,10413"/>
        <path fill="none" stroke="rgb(0,0,0)" stroke-width="100" stroke-linejoin="round" d="M 6515,10399 C 6582,10394 6647,10388 6712,10382"/>
        <path fill="none" stroke="rgb(0,0,0)" stroke-width="100" stroke-linejoin="round" d="M 6916,10362 C 6983,10355 7049,10347 7115,10340"/>
        <path fill="none" stroke="rgb(0,0,0)" stroke-width="100" stroke-linejoin="round" d="M 7309,10315 C 7377,10306 7444,10296 7510,10286"/>
        <path fill="none" stroke="rgb(0,0,0)" stroke-width="100" stroke-linejoin="round" d="M 7710,10254 C 7775,10243 7840,10232 7903,10220"/>
        <path fill="none" stroke="rgb(0,0,0)" stroke-width="100" stroke-linejoin="round" d="M 8101,10181 C 8169,10167 8235,10152 8300,10137"/>
        <path fill="none" stroke="rgb(0,0,0)" stroke-width="100" stroke-linejoin="round" d="M 8489,10091 C 8557,10074 8622,10056 8686,10037"/>
        <path fill="none" stroke="rgb(0,0,0)" stroke-width="100" stroke-linejoin="round" d="M 8878,9979 C 8942,9958 9004,9937 9063,9915"/>
        <path fill="none" stroke="rgb(0,0,0)" stroke-width="100" stroke-linejoin="round" d="M 9254,9838 C 9316,9811 9374,9784 9428,9756"/>
        <path fill="none" stroke="rgb(0,0,0)" stroke-width="100" stroke-linejoin="round" d="M 9608,9652 C 9668,9613 9721,9573 9766,9532"/>
        <path fill="none" stroke="rgb(0,0,0)" stroke-width="100" stroke-linejoin="round" d="M 9891,9385 C 9929,9322 9950,9259 9951,9194"/>
        <path fill="none" stroke="rgb(0,0,0)" stroke-width="100" stroke-linejoin="round" d="M 9951,8994 L 9951,8794"/>
        <path fill="none" stroke="rgb(0,0,0)" stroke-width="100" stroke-linejoin="round" d="M 9951,8594 L 9951,8394"/>
        <path fill="none" stroke="rgb(0,0,0)" stroke-width="100" stroke-linejoin="round" d="M 9951,8194 L 9951,7994"/>
        <path fill="none" stroke="rgb(0,0,0)" stroke-width="100" stroke-linejoin="round" d="M 9951,7794 L 9951,7594"/>
        <path fill="none" stroke="rgb(0,0,0)" stroke-width="100" stroke-linejoin="round" d="M 9951,7394 L 9951,7194"/>
        <path fill="none" stroke="rgb(0,0,0)" stroke-width="100" stroke-linejoin="round" d="M 9951,6994 L 9951,6794"/>
        <path fill="none" stroke="rgb(0,0,0)" stroke-width="100" stroke-linejoin="round" d="M 9951,6594 L 9951,6394"/>
        <path fill="none" stroke="rgb(0,0,0)" stroke-width="100" stroke-linejoin="round" d="M 9951,6194 L 9951,5994"/>
        <path fill="none" stroke="rgb(0,0,0)" stroke-width="100" stroke-linejoin="round" d="M 9951,5794 L 9951,5594"/>
        <path fill="none" stroke="rgb(0,0,0)" stroke-width="100" stroke-linejoin="round" d="M 9951,5394 L 9951,5194"/>
        <path fill="none" stroke="rgb(0,0,0)" stroke-width="100" stroke-linejoin="round" d="M 9951,4994 L 9951,4794"/>
        <path fill="none" stroke="rgb(0,0,0)" stroke-width="100" stroke-linejoin="round" d="M 9951,4594 L 9951,4394"/>
        <path fill="none" stroke="rgb(0,0,0)" stroke-width="100" stroke-linejoin="round" d="M 9951,4194 L 9951,3994"/>
        <path fill="none" stroke="rgb(0,0,0)" stroke-width="100" stroke-linejoin="round" d="M 9951,3794 L 9951,3594"/>
        <path fill="none" stroke="rgb(0,0,0)" stroke-width="100" stroke-linejoin="round" d="M 9951,3394 L 9951,3194"/>
        <path fill="none" stroke="rgb(0,0,0)" stroke-width="100" stroke-linejoin="round" d="M 9951,2994 L 9951,2794"/>
        <path fill="none" stroke="rgb(0,0,0)" stroke-width="100" stroke-linejoin="round" d="M 9951,2594 L 9951,2394"/>
        <path fill="none" stroke="rgb(0,0,0)" stroke-width="100" stroke-linejoin="round" d="M 9951,2194 L 9951,1994"/>
        <path fill="none" stroke="rgb(0,0,0)" stroke-width="100" stroke-linejoin="round" d="M 9951,1794 L 9951,1612 C 9951,1606 9951,1600 9951,1594"/>
        <path fill="none" stroke="rgb(0,0,0)" stroke-width="100" stroke-linejoin="round" d="M 9885,1405 C 9853,1355 9810,1307 9756,1259"/>
        <path fill="none" stroke="rgb(0,0,0)" stroke-width="100" stroke-linejoin="round" d="M 9598,1141 C 9543,1106 9483,1071 9416,1038"/>
        <path fill="none" stroke="rgb(0,0,0)" stroke-width="100" stroke-linejoin="round" d="M 9243,957 C 9182,931 9118,906 9050,881"/>
        <path fill="none" stroke="rgb(0,0,0)" stroke-width="100" stroke-linejoin="round" d="M 8867,818 C 8805,798 8740,778 8674,759"/>
        <path fill="none" stroke="rgb(0,0,0)" stroke-width="100" stroke-linejoin="round" d="M 8477,706 C 8416,691 8352,675 8288,661"/>
        <path fill="none" stroke="rgb(0,0,0)" stroke-width="100" stroke-linejoin="round" d="M 8089,617 C 8024,604 7958,591 7891,579"/>
        <path fill="none" stroke="rgb(0,0,0)" stroke-width="100" stroke-linejoin="round" d="M 7698,545 C 7632,534 7566,523 7498,513"/>
        <path fill="none" stroke="rgb(0,0,0)" stroke-width="100" stroke-linejoin="round" d="M 7297,484 C 7233,476 7168,468 7102,460"/>
        <path fill="none" stroke="rgb(0,0,0)" stroke-width="100" stroke-linejoin="round" d="M 6903,438 C 6836,430 6768,424 6700,418"/>
        <path fill="none" stroke="rgb(0,0,0)" stroke-width="100" stroke-linejoin="round" d="M 6503,401 C 6438,396 6372,391 6305,387"/>
        <path fill="none" stroke="rgb(0,0,0)" stroke-width="100" stroke-linejoin="round" d="M 6104,375 C 6037,371 5969,368 5901,365"/>
        <path fill="none" stroke="rgb(0,0,0)" stroke-width="100" stroke-linejoin="round" d="M 5704,358 C 5638,356 5571,354 5504,353"/>
        <path fill="rgb(255,255,255)" stroke="none" d="M 5175,350 C 2570,350 400,923 400,1612 400,2301 2570,2875 5175,2875 7780,2875 9951,2301 9951,1612 9951,923 7780,350 5175,350 L 5175,350 Z"/>
        <path fill="none" stroke="rgb(0,0,0)" stroke-width="100" stroke-linejoin="round" d="M 5351,351 C 5293,350 5234,350 5175,350 5107,350 5039,350 4972,351"/>
        <path fill="none" stroke="rgb(0,0,0)" stroke-width="100" stroke-linejoin="round" d="M 4771,355 C 4705,356 4638,358 4572,360"/>
        <path fill="none" stroke="rgb(0,0,0)" stroke-width="100" stroke-linejoin="round" d="M 4374,368 C 4306,371 4238,375 4171,379"/>
        <path fill="none" stroke="rgb(0,0,0)" stroke-width="100" stroke-linejoin="round" d="M 3971,392 C 3905,396 3839,401 3774,407"/>
        <path fill="none" stroke="rgb(0,0,0)" stroke-width="100" stroke-linejoin="round" d="M 3574,425 C 3506,431 3439,438 3372,446"/>
        <path fill="none" stroke="rgb(0,0,0)" stroke-width="100" stroke-linejoin="round" d="M 3175,469 C 3109,477 3045,485 2981,494"/>
        <path fill="none" stroke="rgb(0,0,0)" stroke-width="100" stroke-linejoin="round" d="M 2777,524 C 2710,535 2644,546 2580,557"/>
        <path fill="none" stroke="rgb(0,0,0)" stroke-width="100" stroke-linejoin="round" d="M 2388,592 C 2320,605 2252,619 2186,633"/>
        <path fill="none" stroke="rgb(0,0,0)" stroke-width="100" stroke-linejoin="round" d="M 1991,677 C 1927,693 1864,708 1804,724"/>
        <path fill="none" stroke="rgb(0,0,0)" stroke-width="100" stroke-linejoin="round" d="M 1603,781 C 1538,800 1476,820 1415,841"/>
        <path fill="none" stroke="rgb(0,0,0)" stroke-width="100" stroke-linejoin="round" d="M 1226,909 C 1160,935 1099,960 1040,987"/>
        <path fill="none" stroke="rgb(0,0,0)" stroke-width="100" stroke-linejoin="round" d="M 862,1076 C 800,1110 744,1146 693,1181"/>
        <path fill="none" stroke="rgb(0,0,0)" stroke-width="100" stroke-linejoin="round" d="M 539,1313 C 489,1366 452,1420 429,1475"/>
        <path fill="none" stroke="rgb(0,0,0)" stroke-width="100" stroke-linejoin="round" d="M 405,1667 C 415,1729 443,1789 486,1848"/>
        <path fill="none" stroke="rgb(0,0,0)" stroke-width="100" stroke-linejoin="round" d="M 628,1993 C 674,2030 726,2067 785,2103"/>
        <path fill="none" stroke="rgb(0,0,0)" stroke-width="100" stroke-linejoin="round" d="M 967,2203 C 1023,2230 1081,2256 1144,2282"/>
        <path fill="none" stroke="rgb(0,0,0)" stroke-width="100" stroke-linejoin="round" d="M 1339,2357 C 1397,2378 1458,2398 1521,2418"/>
        <path fill="none" stroke="rgb(0,0,0)" stroke-width="100" stroke-linejoin="round" d="M 1716,2476 C 1779,2494 1843,2511 1910,2527"/>
        <path fill="none" stroke="rgb(0,0,0)" stroke-width="100" stroke-linejoin="round" d="M 2101,2573 C 2167,2588 2233,2602 2302,2616"/>
        <path fill="none" stroke="rgb(0,0,0)" stroke-width="100" stroke-linejoin="round" d="M 2497,2653 C 2560,2665 2625,2676 2691,2687"/>
        <path fill="none" stroke="rgb(0,0,0)" stroke-width="100" stroke-linejoin="round" d="M 2892,2718 C 2958,2727 3024,2737 3091,2745"/>
        <path fill="none" stroke="rgb(0,0,0)" stroke-width="100" stroke-linejoin="round" d="M 3287,2770 C 3353,2777 3420,2785 3487,2791"/>
        <path fill="none" stroke="rgb(0,0,0)" stroke-width="100" stroke-linejoin="round" d="M 3690,2811 C 3755,2817 3820,2822 3886,2827"/>
        <path fill="none" stroke="rgb(0,0,0)" stroke-width="100" stroke-linejoin="round" d="M 4085,2841 C 4152,2845 4219,2849 4287,2852"/>
        <path fill="none" stroke="rgb(0,0,0)" stroke-width="100" stroke-linejoin="round" d="M 4488,2862 C 4553,2864 4619,2866 4685,2868"/>
        <path fill="none" stroke="rgb(0,0,0)" stroke-width="100" stroke-linejoin="round" d="M 4886,2873 C 4953,2874 5020,2874 5088,2875"/>
        <path fill="none" stroke="rgb(0,0,0)" stroke-width="100" stroke-linejoin="round" d="M 5291,2875 C 5359,2874 5426,2873 5493,2872"/>
        <path fill="none" stroke="rgb(0,0,0)" stroke-width="100" stroke-linejoin="round" d="M 5692,2867 C 5759,2865 5825,2863 5890,2860"/>
        <path fill="none" stroke="rgb(0,0,0)" stroke-width="100" stroke-linejoin="round" d="M 6092,2851 C 6159,2847 6227,2843 6293,2839"/>
        <path fill="none" stroke="rgb(0,0,0)" stroke-width="100" stroke-linejoin="round" d="M 6492,2825 C 6558,2820 6623,2814 6688,2808"/>
        <path fill="none" stroke="rgb(0,0,0)" stroke-width="100" stroke-linejoin="round" d="M 6891,2789 C 6959,2782 7025,2774 7091,2766"/>
        <path fill="none" stroke="rgb(0,0,0)" stroke-width="100" stroke-linejoin="round" d="M 7286,2742 C 7354,2733 7420,2723 7486,2714"/>
        <path fill="none" stroke="rgb(0,0,0)" stroke-width="100" stroke-linejoin="round" d="M 7686,2682 C 7752,2671 7817,2660 7880,2648"/>
        <path fill="none" stroke="rgb(0,0,0)" stroke-width="100" stroke-linejoin="round" d="M 8077,2610 C 8145,2596 8211,2581 8276,2567"/>
        <path fill="none" stroke="rgb(0,0,0)" stroke-width="100" stroke-linejoin="round" d="M 8467,2521 C 8534,2504 8599,2486 8662,2468"/>
        <path fill="none" stroke="rgb(0,0,0)" stroke-width="100" stroke-linejoin="round" d="M 8856,2410 C 8919,2390 8980,2369 9038,2348"/>
        <path fill="none" stroke="rgb(0,0,0)" stroke-width="100" stroke-linejoin="round" d="M 9232,2271 C 9294,2245 9352,2219 9406,2192"/>
        <path fill="none" stroke="rgb(0,0,0)" stroke-width="100" stroke-linejoin="round" d="M 9589,2089 C 9648,2051 9701,2013 9746,1973"/>
        <path fill="none" stroke="rgb(0,0,0)" stroke-width="100" stroke-linejoin="round" d="M 9879,1828 C 9920,1767 9944,1704 9950,1641"/>
        <path fill="none" stroke="rgb(0,0,0)" stroke-width="100" stroke-linejoin="round" d="M 9910,1449 C 9884,1396 9844,1344 9793,1294"/>
        <path fill="none" stroke="rgb(0,0,0)" stroke-width="100" stroke-linejoin="round" d="M 9637,1167 C 9585,1131 9527,1096 9463,1062"/>
        <path fill="none" stroke="rgb(0,0,0)" stroke-width="100" stroke-linejoin="round" d="M 9287,976 C 9227,950 9165,924 9099,899"/>
        <path fill="none" stroke="rgb(0,0,0)" stroke-width="100" stroke-linejoin="round" d="M 8911,832 C 8850,812 8787,792 8721,773"/>
        <path fill="none" stroke="rgb(0,0,0)" stroke-width="100" stroke-linejoin="round" d="M 8522,718 C 8461,702 8398,686 8334,671"/>
        <path fill="none" stroke="rgb(0,0,0)" stroke-width="100" stroke-linejoin="round" d="M 8137,627 C 8072,614 8005,600 7937,587"/>
        <path fill="none" stroke="rgb(0,0,0)" stroke-width="100" stroke-linejoin="round" d="M 7745,553 C 7680,541 7614,531 7546,520"/>
        <path fill="none" stroke="rgb(0,0,0)" stroke-width="100" stroke-linejoin="round" d="M 7343,491 C 7279,482 7215,474 7150,466"/>
        <path fill="none" stroke="rgb(0,0,0)" stroke-width="100" stroke-linejoin="round" d="M 6951,443 C 6885,435 6817,429 6749,422"/>
        <path fill="none" stroke="rgb(0,0,0)" stroke-width="100" stroke-linejoin="round" d="M 6550,405 C 6485,399 6419,394 6353,390"/>
        <path fill="none" stroke="rgb(0,0,0)" stroke-width="100" stroke-linejoin="round" d="M 6152,377 C 6085,374 6017,370 5949,367"/>
        <path fill="none" stroke="rgb(0,0,0)" stroke-width="100" stroke-linejoin="round" d="M 5752,359 C 5686,357 5619,355 5553,354"/>
       </g>
      </g>
      <g class="Group">
       <g class="com.sun.star.drawing.CustomShape">
        <g id="id4">
         <rect class="BoundingBox" stroke="none" fill="none" x="795" y="3265" width="1512" height="1493"/>
         <path fill="rgb(255,255,255)" stroke="none" d="M 800,3444 L 800,3444 C 800,3414 808,3384 824,3357 839,3331 861,3309 888,3293 915,3278 946,3270 977,3270 L 2124,3270 2124,3270 C 2155,3270 2186,3278 2213,3293 2240,3309 2262,3331 2277,3357 2293,3384 2301,3414 2301,3444 L 2301,3444 2301,4576 2301,4577 C 2301,4607 2293,4637 2277,4664 2262,4690 2240,4712 2213,4728 2186,4743 2155,4751 2124,4751 L 976,4751 977,4751 C 946,4751 915,4743 888,4728 861,4712 839,4690 824,4664 808,4637 800,4607 800,4577 L 800,3444 Z"/>
         <path fill="none" stroke="rgb(0,0,0)" stroke-width="10" stroke-linejoin="round" d="M 800,3444 L 800,3444 C 800,3414 808,3384 824,3357 839,3331 861,3309 888,3293 915,3278 946,3270 977,3270 L 2124,3270 2124,3270 C 2155,3270 2186,3278 2213,3293 2240,3309 2262,3331 2277,3357 2293,3384 2301,3414 2301,3444 L 2301,3444 2301,4576 2301,4577 C 2301,4607 2293,4637 2277,4664 2262,4690 2240,4712 2213,4728 2186,4743 2155,4751 2124,4751 L 976,4751 977,4751 C 946,4751 915,4743 888,4728 861,4712 839,4690 824,4664 808,4637 800,4607 800,4577 L 800,3444 Z"/>
        </g>
       </g>
       <g class="com.sun.star.drawing.CustomShape">
        <g id="id5">
         <rect class="BoundingBox" stroke="none" fill="none" x="873" y="3393" width="1356" height="388"/>
         <path fill="rgb(153,204,255)" stroke="none" d="M 883,3403 L 2218,3403 2218,3770 883,3770 883,3403 883,3403 Z"/>
         <path fill="none" stroke="rgb(0,0,0)" stroke-width="20" stroke-linejoin="round" d="M 883,3403 L 2218,3403 2218,3770 883,3770 883,3403 883,3403 Z"/>
        </g>
       </g>
       <g class="com.sun.star.drawing.CustomShape">
        <g id="id6">
         <rect class="BoundingBox" stroke="none" fill="none" x="873" y="3824" width="1356" height="389"/>
         <path fill="rgb(243,160,140)" stroke="none" d="M 883,3835 L 2218,3835 2218,4202 883,4202 883,3835 883,3835 Z"/>
         <path fill="none" stroke="rgb(0,0,0)" stroke-width="20" stroke-linejoin="round" d="M 883,3835 L 2218,3835 2218,4202 883,4202 883,3835 883,3835 Z"/>
        </g>
       </g>
       <g class="com.sun.star.drawing.CustomShape">
        <g id="id7">
         <rect class="BoundingBox" stroke="none" fill="none" x="873" y="4257" width="1356" height="389"/>
         <path fill="rgb(255,255,102)" stroke="none" d="M 883,4268 L 2218,4268 2218,4635 883,4635 883,4268 883,4268 Z"/>
         <path fill="none" stroke="rgb(0,0,0)" stroke-width="20" stroke-linejoin="round" d="M 883,4268 L 2218,4268 2218,4635 883,4635 883,4268 883,4268 Z"/>
        </g>
       </g>
      </g>
      <g class="Group">
       <g class="com.sun.star.drawing.CustomShape">
        <g id="id8">
         <rect class="BoundingBox" stroke="none" fill="none" x="1495" y="5095" width="1512" height="1493"/>
         <path fill="rgb(255,255,255)" stroke="none" d="M 1500,5274 L 1500,5274 C 1500,5244 1508,5214 1524,5187 1539,5161 1561,5139 1588,5123 1615,5108 1646,5100 1677,5100 L 2824,5100 2824,5100 C 2855,5100 2886,5108 2913,5123 2940,5139 2962,5161 2977,5187 2993,5214 3001,5244 3001,5274 L 3001,5274 3001,6406 3001,6407 C 3001,6437 2993,6467 2977,6494 2962,6520 2940,6542 2913,6558 2886,6573 2855,6581 2824,6581 L 1676,6581 1677,6581 C 1646,6581 1615,6573 1588,6558 1561,6542 1539,6520 1524,6494 1508,6467 1500,6437 1500,6407 L 1500,5274 Z"/>
         <path fill="none" stroke="rgb(0,0,0)" stroke-width="10" stroke-linejoin="round" d="M 1500,5274 L 1500,5274 C 1500,5244 1508,5214 1524,5187 1539,5161 1561,5139 1588,5123 1615,5108 1646,5100 1677,5100 L 2824,5100 2824,5100 C 2855,5100 2886,5108 2913,5123 2940,5139 2962,5161 2977,5187 2993,5214 3001,5244 3001,5274 L 3001,5274 3001,6406 3001,6407 C 3001,6437 2993,6467 2977,6494 2962,6520 2940,6542 2913,6558 2886,6573 2855,6581 2824,6581 L 1676,6581 1677,6581 C 1646,6581 1615,6573 1588,6558 1561,6542 1539,6520 1524,6494 1508,6467 1500,6437 1500,6407 L 1500,5274 Z"/>
        </g>
       </g>
       <g class="com.sun.star.drawing.CustomShape">
        <g id="id9">
         <rect class="BoundingBox" stroke="none" fill="none" x="1573" y="5223" width="1356" height="388"/>
         <path fill="rgb(153,204,255)" stroke="none" d="M 1583,5233 L 2918,5233 2918,5600 1583,5600 1583,5233 1583,5233 Z"/>
         <path fill="none" stroke="rgb(0,0,0)" stroke-width="20" stroke-linejoin="round" d="M 1583,5233 L 2918,5233 2918,5600 1583,5600 1583,5233 1583,5233 Z"/>
        </g>
       </g>
       <g class="com.sun.star.drawing.CustomShape">
        <g id="id10">
         <rect class="BoundingBox" stroke="none" fill="none" x="1573" y="5655" width="1356" height="388"/>
         <path fill="rgb(243,160,140)" stroke="none" d="M 1583,5665 L 2918,5665 2918,6032 1583,6032 1583,5665 1583,5665 Z"/>
         <path fill="none" stroke="rgb(0,0,0)" stroke-width="20" stroke-linejoin="round" d="M 1583,5665 L 2918,5665 2918,6032 1583,6032 1583,5665 1583,5665 Z"/>
        </g>
       </g>
       <g class="com.sun.star.drawing.CustomShape">
        <g id="id11">
         <rect class="BoundingBox" stroke="none" fill="none" x="1573" y="6088" width="1356" height="388"/>
         <path fill="rgb(255,255,102)" stroke="none" d="M 1583,6098 L 2918,6098 2918,6465 1583,6465 1583,6098 1583,6098 Z"/>
         <path fill="none" stroke="rgb(0,0,0)" stroke-width="20" stroke-linejoin="round" d="M 1583,6098 L 2918,6098 2918,6465 1583,6465 1583,6098 1583,6098 Z"/>
        </g>
       </g>
      </g>
      <g class="Group">
       <g class="com.sun.star.drawing.CustomShape">
        <g id="id12">
         <rect class="BoundingBox" stroke="none" fill="none" x="3395" y="3515" width="1513" height="1492"/>
         <path fill="rgb(255,255,255)" stroke="none" d="M 3400,3694 L 3400,3694 C 3400,3664 3408,3634 3424,3607 3439,3581 3461,3559 3488,3543 3515,3528 3546,3520 3577,3520 L 4724,3520 4724,3520 C 4755,3520 4786,3528 4813,3543 4840,3559 4862,3581 4877,3607 4893,3634 4901,3664 4901,3694 L 4901,3694 4901,4826 4901,4827 C 4901,4857 4893,4887 4877,4914 4862,4940 4840,4962 4813,4978 4786,4993 4755,5001 4724,5001 L 3576,5001 3577,5001 C 3546,5001 3515,4993 3488,4978 3461,4962 3439,4940 3424,4914 3408,4887 3400,4857 3400,4827 L 3400,3694 Z"/>
         <path fill="none" stroke="rgb(0,0,0)" stroke-width="10" stroke-linejoin="round" d="M 3400,3694 L 3400,3694 C 3400,3664 3408,3634 3424,3607 3439,3581 3461,3559 3488,3543 3515,3528 3546,3520 3577,3520 L 4724,3520 4724,3520 C 4755,3520 4786,3528 4813,3543 4840,3559 4862,3581 4877,3607 4893,3634 4901,3664 4901,3694 L 4901,3694 4901,4826 4901,4827 C 4901,4857 4893,4887 4877,4914 4862,4940 4840,4962 4813,4978 4786,4993 4755,5001 4724,5001 L 3576,5001 3577,5001 C 3546,5001 3515,4993 3488,4978 3461,4962 3439,4940 3424,4914 3408,4887 3400,4857 3400,4827 L 3400,3694 Z"/>
        </g>
       </g>
       <g class="com.sun.star.drawing.CustomShape">
        <g id="id13">
         <rect class="BoundingBox" stroke="none" fill="none" x="3473" y="3642" width="1356" height="389"/>
         <path fill="rgb(153,204,255)" stroke="none" d="M 3483,3653 L 4818,3653 4818,4020 3483,4020 3483,3653 3483,3653 Z"/>
         <path fill="none" stroke="rgb(0,0,0)" stroke-width="20" stroke-linejoin="round" d="M 3483,3653 L 4818,3653 4818,4020 3483,4020 3483,3653 3483,3653 Z"/>
        </g>
       </g>
       <g class="com.sun.star.drawing.CustomShape">
        <g id="id14">
         <rect class="BoundingBox" stroke="none" fill="none" x="3473" y="4075" width="1356" height="388"/>
         <path fill="rgb(243,160,140)" stroke="none" d="M 3483,4085 L 4818,4085 4818,4452 3483,4452 3483,4085 3483,4085 Z"/>
         <path fill="none" stroke="rgb(0,0,0)" stroke-width="20" stroke-linejoin="round" d="M 3483,4085 L 4818,4085 4818,4452 3483,4452 3483,4085 3483,4085 Z"/>
        </g>
       </g>
       <g class="com.sun.star.drawing.CustomShape">
        <g id="id15">
         <rect class="BoundingBox" stroke="none" fill="none" x="3473" y="4508" width="1356" height="388"/>
         <path fill="rgb(255,255,102)" stroke="none" d="M 3483,4518 L 4818,4518 4818,4885 3483,4885 3483,4518 3483,4518 Z"/>
         <path fill="none" stroke="rgb(0,0,0)" stroke-width="20" stroke-linejoin="round" d="M 3483,4518 L 4818,4518 4818,4885 3483,4885 3483,4518 3483,4518 Z"/>
        </g>
       </g>
      </g>
      <g class="Group">
       <g class="com.sun.star.drawing.CustomShape">
        <g id="id16">
         <rect class="BoundingBox" stroke="none" fill="none" x="2945" y="6845" width="1512" height="1493"/>
         <path fill="rgb(255,255,255)" stroke="none" d="M 2950,7024 L 2950,7024 C 2950,6994 2958,6964 2974,6937 2989,6911 3011,6889 3038,6873 3065,6858 3096,6850 3127,6850 L 4274,6850 4274,6850 C 4305,6850 4336,6858 4363,6873 4390,6889 4412,6911 4427,6937 4443,6964 4451,6994 4451,7024 L 4451,7024 4451,8156 4451,8157 C 4451,8187 4443,8217 4427,8244 4412,8270 4390,8292 4363,8308 4336,8323 4305,8331 4274,8331 L 3126,8331 3127,8331 C 3096,8331 3065,8323 3038,8308 3011,8292 2989,8270 2974,8244 2958,8217 2950,8187 2950,8157 L 2950,7024 Z"/>
         <path fill="none" stroke="rgb(0,0,0)" stroke-width="10" stroke-linejoin="round" d="M 2950,7024 L 2950,7024 C 2950,6994 2958,6964 2974,6937 2989,6911 3011,6889 3038,6873 3065,6858 3096,6850 3127,6850 L 4274,6850 4274,6850 C 4305,6850 4336,6858 4363,6873 4390,6889 4412,6911 4427,6937 4443,6964 4451,6994 4451,7024 L 4451,7024 4451,8156 4451,8157 C 4451,8187 4443,8217 4427,8244 4412,8270 4390,8292 4363,8308 4336,8323 4305,8331 4274,8331 L 3126,8331 3127,8331 C 3096,8331 3065,8323 3038,8308 3011,8292 2989,8270 2974,8244 2958,8217 2950,8187 2950,8157 L 2950,7024 Z"/>
        </g>
       </g>
       <g class="com.sun.star.drawing.CustomShape">
        <g id="id17">
         <rect class="BoundingBox" stroke="none" fill="none" x="3023" y="6973" width="1356" height="388"/>
         <path fill="rgb(153,204,255)" stroke="none" d="M 3033,6983 L 4368,6983 4368,7350 3033,7350 3033,6983 3033,6983 Z"/>
         <path fill="none" stroke="rgb(0,0,0)" stroke-width="20" stroke-linejoin="round" d="M 3033,6983 L 4368,6983 4368,7350 3033,7350 3033,6983 3033,6983 Z"/>
        </g>
       </g>
       <g class="com.sun.star.drawing.CustomShape">
        <g id="id18">
         <rect class="BoundingBox" stroke="none" fill="none" x="3023" y="7405" width="1356" height="388"/>
         <path fill="rgb(243,160,140)" stroke="none" d="M 3033,7415 L 4368,7415 4368,7782 3033,7782 3033,7415 3033,7415 Z"/>
         <path fill="none" stroke="rgb(0,0,0)" stroke-width="20" stroke-linejoin="round" d="M 3033,7415 L 4368,7415 4368,7782 3033,7782 3033,7415 3033,7415 Z"/>
        </g>
       </g>
       <g class="com.sun.star.drawing.CustomShape">
        <g id="id19">
         <rect class="BoundingBox" stroke="none" fill="none" x="3023" y="7838" width="1356" height="388"/>
         <path fill="rgb(255,255,102)" stroke="none" d="M 3033,7848 L 4368,7848 4368,8215 3033,8215 3033,7848 3033,7848 Z"/>
         <path fill="none" stroke="rgb(0,0,0)" stroke-width="20" stroke-linejoin="round" d="M 3033,7848 L 4368,7848 4368,8215 3033,8215 3033,7848 3033,7848 Z"/>
        </g>
       </g>
      </g>
      <g class="Group">
       <g class="com.sun.star.drawing.CustomShape">
        <g id="id20">
         <rect class="BoundingBox" stroke="none" fill="none" x="745" y="7565" width="1512" height="1492"/>
         <path fill="rgb(255,255,255)" stroke="none" d="M 750,7744 L 750,7744 C 750,7714 758,7684 774,7657 789,7631 811,7609 838,7593 865,7578 896,7570 927,7570 L 2074,7570 2074,7570 C 2105,7570 2136,7578 2163,7593 2190,7609 2212,7631 2227,7657 2243,7684 2251,7714 2251,7744 L 2251,7744 2251,8876 2251,8877 C 2251,8907 2243,8937 2227,8964 2212,8990 2190,9012 2163,9028 2136,9043 2105,9051 2074,9051 L 926,9051 927,9051 C 896,9051 865,9043 838,9028 811,9012 789,8990 774,8964 758,8937 750,8907 750,8877 L 750,7744 Z"/>
         <path fill="none" stroke="rgb(0,0,0)" stroke-width="10" stroke-linejoin="round" d="M 750,7744 L 750,7744 C 750,7714 758,7684 774,7657 789,7631 811,7609 838,7593 865,7578 896,7570 927,7570 L 2074,7570 2074,7570 C 2105,7570 2136,7578 2163,7593 2190,7609 2212,7631 2227,7657 2243,7684 2251,7714 2251,7744 L 2251,7744 2251,8876 2251,8877 C 2251,8907 2243,8937 2227,8964 2212,8990 2190,9012 2163,9028 2136,9043 2105,9051 2074,9051 L 926,9051 927,9051 C 896,9051 865,9043 838,9028 811,9012 789,8990 774,8964 758,8937 750,8907 750,8877 L 750,7744 Z"/>
        </g>
       </g>
       <g class="com.sun.star.drawing.CustomShape">
        <g id="id21">
         <rect class="BoundingBox" stroke="none" fill="none" x="823" y="7692" width="1356" height="389"/>
         <path fill="rgb(153,204,255)" stroke="none" d="M 833,7703 L 2168,7703 2168,8070 833,8070 833,7703 833,7703 Z"/>
         <path fill="none" stroke="rgb(0,0,0)" stroke-width="20" stroke-linejoin="round" d="M 833,7703 L 2168,7703 2168,8070 833,8070 833,7703 833,7703 Z"/>
        </g>
       </g>
       <g class="com.sun.star.drawing.CustomShape">
        <g id="id22">
         <rect class="BoundingBox" stroke="none" fill="none" x="823" y="8125" width="1356" height="388"/>
         <path fill="rgb(243,160,140)" stroke="none" d="M 833,8135 L 2168,8135 2168,8502 833,8502 833,8135 833,8135 Z"/>
         <path fill="none" stroke="rgb(0,0,0)" stroke-width="20" stroke-linejoin="round" d="M 833,8135 L 2168,8135 2168,8502 833,8502 833,8135 833,8135 Z"/>
        </g>
       </g>
       <g class="com.sun.star.drawing.CustomShape">
        <g id="id23">
         <rect class="BoundingBox" stroke="none" fill="none" x="823" y="8558" width="1356" height="388"/>
         <path fill="rgb(255,255,102)" stroke="none" d="M 833,8568 L 2168,8568 2168,8935 833,8935 833,8568 833,8568 Z"/>
         <path fill="none" stroke="rgb(0,0,0)" stroke-width="20" stroke-linejoin="round" d="M 833,8568 L 2168,8568 2168,8935 833,8935 833,8568 833,8568 Z"/>
        </g>
       </g>
      </g>
      <g class="Group">
       <g class="com.sun.star.drawing.CustomShape">
        <g id="id24">
         <rect class="BoundingBox" stroke="none" fill="none" x="4745" y="8495" width="1512" height="1493"/>
         <path fill="rgb(255,255,255)" stroke="none" d="M 4750,8674 L 4750,8674 C 4750,8644 4758,8614 4774,8587 4789,8561 4811,8539 4838,8523 4865,8508 4896,8500 4927,8500 L 6074,8500 6074,8500 C 6105,8500 6136,8508 6163,8523 6190,8539 6212,8561 6227,8587 6243,8614 6251,8644 6251,8674 L 6251,8674 6251,9806 6251,9807 C 6251,9837 6243,9867 6227,9894 6212,9920 6190,9942 6163,9958 6136,9973 6105,9981 6074,9981 L 4926,9981 4927,9981 C 4896,9981 4865,9973 4838,9958 4811,9942 4789,9920 4774,9894 4758,9867 4750,9837 4750,9807 L 4750,8674 Z"/>
         <path fill="none" stroke="rgb(0,0,0)" stroke-width="10" stroke-linejoin="round" d="M 4750,8674 L 4750,8674 C 4750,8644 4758,8614 4774,8587 4789,8561 4811,8539 4838,8523 4865,8508 4896,8500 4927,8500 L 6074,8500 6074,8500 C 6105,8500 6136,8508 6163,8523 6190,8539 6212,8561 6227,8587 6243,8614 6251,8644 6251,8674 L 6251,8674 6251,9806 6251,9807 C 6251,9837 6243,9867 6227,9894 6212,9920 6190,9942 6163,9958 6136,9973 6105,9981 6074,9981 L 4926,9981 4927,9981 C 4896,9981 4865,9973 4838,9958 4811,9942 4789,9920 4774,9894 4758,9867 4750,9837 4750,9807 L 4750,8674 Z"/>
        </g>
       </g>
       <g class="com.sun.star.drawing.CustomShape">
        <g id="id25">
         <rect class="BoundingBox" stroke="none" fill="none" x="4823" y="8623" width="1357" height="388"/>
         <path fill="rgb(153,204,255)" stroke="none" d="M 4833,8633 L 6168,8633 6168,9000 4833,9000 4833,8633 4833,8633 Z"/>
         <path fill="none" stroke="rgb(0,0,0)" stroke-width="20" stroke-linejoin="round" d="M 4833,8633 L 6168,8633 6168,9000 4833,9000 4833,8633 4833,8633 Z"/>
        </g>
       </g>
       <g class="com.sun.star.drawing.CustomShape">
        <g id="id26">
         <rect class="BoundingBox" stroke="none" fill="none" x="4823" y="9055" width="1357" height="388"/>
         <path fill="rgb(243,160,140)" stroke="none" d="M 4833,9065 L 6168,9065 6168,9432 4833,9432 4833,9065 4833,9065 Z"/>
         <path fill="none" stroke="rgb(0,0,0)" stroke-width="20" stroke-linejoin="round" d="M 4833,9065 L 6168,9065 6168,9432 4833,9432 4833,9065 4833,9065 Z"/>
        </g>
       </g>
       <g class="com.sun.star.drawing.CustomShape">
        <g id="id27">
         <rect class="BoundingBox" stroke="none" fill="none" x="4823" y="9488" width="1357" height="388"/>
         <path fill="rgb(255,255,102)" stroke="none" d="M 4833,9498 L 6168,9498 6168,9865 4833,9865 4833,9498 4833,9498 Z"/>
         <path fill="none" stroke="rgb(0,0,0)" stroke-width="20" stroke-linejoin="round" d="M 4833,9498 L 6168,9498 6168,9865 4833,9865 4833,9498 4833,9498 Z"/>
        </g>
       </g>
      </g>
      <g class="Group">
       <g class="com.sun.star.drawing.CustomShape">
        <g id="id28">
         <rect class="BoundingBox" stroke="none" fill="none" x="4895" y="5415" width="1512" height="1493"/>
         <path fill="rgb(255,255,255)" stroke="none" d="M 4900,5594 L 4900,5594 C 4900,5564 4908,5534 4924,5507 4939,5481 4961,5459 4988,5443 5015,5428 5046,5420 5077,5420 L 6224,5420 6224,5420 C 6255,5420 6286,5428 6313,5443 6340,5459 6362,5481 6377,5507 6393,5534 6401,5564 6401,5594 L 6401,5594 6401,6726 6401,6727 C 6401,6757 6393,6787 6377,6814 6362,6840 6340,6862 6313,6878 6286,6893 6255,6901 6224,6901 L 5076,6901 5077,6901 C 5046,6901 5015,6893 4988,6878 4961,6862 4939,6840 4924,6814 4908,6787 4900,6757 4900,6727 L 4900,5594 Z"/>
         <path fill="none" stroke="rgb(0,0,0)" stroke-width="10" stroke-linejoin="round" d="M 4900,5594 L 4900,5594 C 4900,5564 4908,5534 4924,5507 4939,5481 4961,5459 4988,5443 5015,5428 5046,5420 5077,5420 L 6224,5420 6224,5420 C 6255,5420 6286,5428 6313,5443 6340,5459 6362,5481 6377,5507 6393,5534 6401,5564 6401,5594 L 6401,5594 6401,6726 6401,6727 C 6401,6757 6393,6787 6377,6814 6362,6840 6340,6862 6313,6878 6286,6893 6255,6901 6224,6901 L 5076,6901 5077,6901 C 5046,6901 5015,6893 4988,6878 4961,6862 4939,6840 4924,6814 4908,6787 4900,6757 4900,6727 L 4900,5594 Z"/>
        </g>
       </g>
       <g class="com.sun.star.drawing.CustomShape">
        <g id="id29">
         <rect class="BoundingBox" stroke="none" fill="none" x="4973" y="5543" width="1356" height="388"/>
         <path fill="rgb(153,204,255)" stroke="none" d="M 4983,5553 L 6318,5553 6318,5920 4983,5920 4983,5553 4983,5553 Z"/>
         <path fill="none" stroke="rgb(0,0,0)" stroke-width="20" stroke-linejoin="round" d="M 4983,5553 L 6318,5553 6318,5920 4983,5920 4983,5553 4983,5553 Z"/>
        </g>
       </g>
       <g class="com.sun.star.drawing.CustomShape">
        <g id="id30">
         <rect class="BoundingBox" stroke="none" fill="none" x="4973" y="5974" width="1356" height="389"/>
         <path fill="rgb(243,160,140)" stroke="none" d="M 4983,5985 L 6318,5985 6318,6352 4983,6352 4983,5985 4983,5985 Z"/>
         <path fill="none" stroke="rgb(0,0,0)" stroke-width="20" stroke-linejoin="round" d="M 4983,5985 L 6318,5985 6318,6352 4983,6352 4983,5985 4983,5985 Z"/>
        </g>
       </g>
       <g class="com.sun.star.drawing.CustomShape">
        <g id="id31">
         <rect class="BoundingBox" stroke="none" fill="none" x="4973" y="6407" width="1356" height="389"/>
         <path fill="rgb(255,255,102)" stroke="none" d="M 4983,6418 L 6318,6418 6318,6785 4983,6785 4983,6418 4983,6418 Z"/>
         <path fill="none" stroke="rgb(0,0,0)" stroke-width="20" stroke-linejoin="round" d="M 4983,6418 L 6318,6418 6318,6785 4983,6785 4983,6418 4983,6418 Z"/>
        </g>
       </g>
      </g>
      <g class="Group">
       <g class="com.sun.star.drawing.CustomShape">
        <g id="id32">
         <rect class="BoundingBox" stroke="none" fill="none" x="5895" y="3395" width="1513" height="1493"/>
         <path fill="rgb(255,255,255)" stroke="none" d="M 5900,3574 L 5900,3574 C 5900,3544 5908,3514 5924,3487 5939,3461 5961,3439 5988,3423 6015,3408 6046,3400 6077,3400 L 7224,3400 7224,3400 C 7255,3400 7286,3408 7313,3423 7340,3439 7362,3461 7377,3487 7393,3514 7401,3544 7401,3574 L 7401,3574 7401,4706 7401,4707 C 7401,4737 7393,4767 7377,4794 7362,4820 7340,4842 7313,4858 7286,4873 7255,4881 7224,4881 L 6076,4881 6077,4881 C 6046,4881 6015,4873 5988,4858 5961,4842 5939,4820 5924,4794 5908,4767 5900,4737 5900,4707 L 5900,3574 Z"/>
         <path fill="none" stroke="rgb(0,0,0)" stroke-width="10" stroke-linejoin="round" d="M 5900,3574 L 5900,3574 C 5900,3544 5908,3514 5924,3487 5939,3461 5961,3439 5988,3423 6015,3408 6046,3400 6077,3400 L 7224,3400 7224,3400 C 7255,3400 7286,3408 7313,3423 7340,3439 7362,3461 7377,3487 7393,3514 7401,3544 7401,3574 L 7401,3574 7401,4706 7401,4707 C 7401,4737 7393,4767 7377,4794 7362,4820 7340,4842 7313,4858 7286,4873 7255,4881 7224,4881 L 6076,4881 6077,4881 C 6046,4881 6015,4873 5988,4858 5961,4842 5939,4820 5924,4794 5908,4767 5900,4737 5900,4707 L 5900,3574 Z"/>
        </g>
       </g>
       <g class="com.sun.star.drawing.CustomShape">
        <g id="id33">
         <rect class="BoundingBox" stroke="none" fill="none" x="5973" y="3523" width="1356" height="388"/>
         <path fill="rgb(153,204,255)" stroke="none" d="M 5983,3533 L 7318,3533 7318,3900 5983,3900 5983,3533 5983,3533 Z"/>
         <path fill="none" stroke="rgb(0,0,0)" stroke-width="20" stroke-linejoin="round" d="M 5983,3533 L 7318,3533 7318,3900 5983,3900 5983,3533 5983,3533 Z"/>
        </g>
       </g>
       <g class="com.sun.star.drawing.CustomShape">
        <g id="id34">
         <rect class="BoundingBox" stroke="none" fill="none" x="5973" y="3955" width="1356" height="388"/>
         <path fill="rgb(243,160,140)" stroke="none" d="M 5983,3965 L 7318,3965 7318,4332 5983,4332 5983,3965 5983,3965 Z"/>
         <path fill="none" stroke="rgb(0,0,0)" stroke-width="20" stroke-linejoin="round" d="M 5983,3965 L 7318,3965 7318,4332 5983,4332 5983,3965 5983,3965 Z"/>
        </g>
       </g>
       <g class="com.sun.star.drawing.CustomShape">
        <g id="id35">
         <rect class="BoundingBox" stroke="none" fill="none" x="5973" y="4388" width="1356" height="388"/>
         <path fill="rgb(255,255,102)" stroke="none" d="M 5983,4398 L 7318,4398 7318,4765 5983,4765 5983,4398 5983,4398 Z"/>
         <path fill="none" stroke="rgb(0,0,0)" stroke-width="20" stroke-linejoin="round" d="M 5983,4398 L 7318,4398 7318,4765 5983,4765 5983,4398 5983,4398 Z"/>
        </g>
       </g>
      </g>
      <g class="Group">
       <g class="com.sun.star.drawing.CustomShape">
        <g id="id36">
         <rect class="BoundingBox" stroke="none" fill="none" x="7995" y="5445" width="1512" height="1493"/>
         <path fill="rgb(255,255,255)" stroke="none" d="M 8000,5624 L 8000,5624 C 8000,5594 8008,5564 8024,5537 8039,5511 8061,5489 8088,5473 8115,5458 8146,5450 8177,5450 L 9324,5450 9324,5450 C 9355,5450 9386,5458 9413,5473 9440,5489 9462,5511 9477,5537 9493,5564 9501,5594 9501,5624 L 9501,5624 9501,6756 9501,6757 C 9501,6787 9493,6817 9477,6844 9462,6870 9440,6892 9413,6908 9386,6923 9355,6931 9324,6931 L 8176,6931 8177,6931 C 8146,6931 8115,6923 8088,6908 8061,6892 8039,6870 8024,6844 8008,6817 8000,6787 8000,6757 L 8000,5624 Z"/>
         <path fill="none" stroke="rgb(0,0,0)" stroke-width="10" stroke-linejoin="round" d="M 8000,5624 L 8000,5624 C 8000,5594 8008,5564 8024,5537 8039,5511 8061,5489 8088,5473 8115,5458 8146,5450 8177,5450 L 9324,5450 9324,5450 C 9355,5450 9386,5458 9413,5473 9440,5489 9462,5511 9477,5537 9493,5564 9501,5594 9501,5624 L 9501,5624 9501,6756 9501,6757 C 9501,6787 9493,6817 9477,6844 9462,6870 9440,6892 9413,6908 9386,6923 9355,6931 9324,6931 L 8176,6931 8177,6931 C 8146,6931 8115,6923 8088,6908 8061,6892 8039,6870 8024,6844 8008,6817 8000,6787 8000,6757 L 8000,5624 Z"/>
        </g>
       </g>
       <g class="com.sun.star.drawing.CustomShape">
        <g id="id37">
         <rect class="BoundingBox" stroke="none" fill="none" x="8073" y="5573" width="1357" height="388"/>
         <path fill="rgb(153,204,255)" stroke="none" d="M 8083,5583 L 9418,5583 9418,5950 8083,5950 8083,5583 8083,5583 Z"/>
         <path fill="none" stroke="rgb(0,0,0)" stroke-width="20" stroke-linejoin="round" d="M 8083,5583 L 9418,5583 9418,5950 8083,5950 8083,5583 8083,5583 Z"/>
        </g>
       </g>
       <g class="com.sun.star.drawing.CustomShape">
        <g id="id38">
         <rect class="BoundingBox" stroke="none" fill="none" x="8073" y="6004" width="1357" height="389"/>
         <path fill="rgb(243,160,140)" stroke="none" d="M 8083,6015 L 9418,6015 9418,6382 8083,6382 8083,6015 8083,6015 Z"/>
         <path fill="none" stroke="rgb(0,0,0)" stroke-width="20" stroke-linejoin="round" d="M 8083,6015 L 9418,6015 9418,6382 8083,6382 8083,6015 8083,6015 Z"/>
        </g>
       </g>
       <g class="com.sun.star.drawing.CustomShape">
        <g id="id39">
         <rect class="BoundingBox" stroke="none" fill="none" x="8073" y="6438" width="1357" height="388"/>
         <path fill="rgb(255,255,102)" stroke="none" d="M 8083,6448 L 9418,6448 9418,6815 8083,6815 8083,6448 8083,6448 Z"/>
         <path fill="none" stroke="rgb(0,0,0)" stroke-width="20" stroke-linejoin="round" d="M 8083,6448 L 9418,6448 9418,6815 8083,6815 8083,6448 8083,6448 Z"/>
        </g>
       </g>
      </g>
      <g class="Group">
       <g class="com.sun.star.drawing.CustomShape">
        <g id="id40">
         <rect class="BoundingBox" stroke="none" fill="none" x="6745" y="7665" width="1512" height="1493"/>
         <path fill="rgb(255,255,255)" stroke="none" d="M 6750,7844 L 6750,7844 C 6750,7814 6758,7784 6774,7757 6789,7731 6811,7709 6838,7693 6865,7678 6896,7670 6927,7670 L 8074,7670 8074,7670 C 8105,7670 8136,7678 8163,7693 8190,7709 8212,7731 8227,7757 8243,7784 8251,7814 8251,7844 L 8251,7844 8251,8976 8251,8977 C 8251,9007 8243,9037 8227,9064 8212,9090 8190,9112 8163,9128 8136,9143 8105,9151 8074,9151 L 6926,9151 6927,9151 C 6896,9151 6865,9143 6838,9128 6811,9112 6789,9090 6774,9064 6758,9037 6750,9007 6750,8977 L 6750,7844 Z"/>
         <path fill="none" stroke="rgb(0,0,0)" stroke-width="10" stroke-linejoin="round" d="M 6750,7844 L 6750,7844 C 6750,7814 6758,7784 6774,7757 6789,7731 6811,7709 6838,7693 6865,7678 6896,7670 6927,7670 L 8074,7670 8074,7670 C 8105,7670 8136,7678 8163,7693 8190,7709 8212,7731 8227,7757 8243,7784 8251,7814 8251,7844 L 8251,7844 8251,8976 8251,8977 C 8251,9007 8243,9037 8227,9064 8212,9090 8190,9112 8163,9128 8136,9143 8105,9151 8074,9151 L 6926,9151 6927,9151 C 6896,9151 6865,9143 6838,9128 6811,9112 6789,9090 6774,9064 6758,9037 6750,9007 6750,8977 L 6750,7844 Z"/>
        </g>
       </g>
       <g class="com.sun.star.drawing.CustomShape">
        <g id="id41">
         <rect class="BoundingBox" stroke="none" fill="none" x="6823" y="7793" width="1356" height="388"/>
         <path fill="rgb(153,204,255)" stroke="none" d="M 6833,7803 L 8168,7803 8168,8170 6833,8170 6833,7803 6833,7803 Z"/>
         <path fill="none" stroke="rgb(0,0,0)" stroke-width="20" stroke-linejoin="round" d="M 6833,7803 L 8168,7803 8168,8170 6833,8170 6833,7803 6833,7803 Z"/>
        </g>
       </g>
       <g class="com.sun.star.drawing.CustomShape">
        <g id="id42">
         <rect class="BoundingBox" stroke="none" fill="none" x="6823" y="8224" width="1356" height="389"/>
         <path fill="rgb(243,160,140)" stroke="none" d="M 6833,8235 L 8168,8235 8168,8602 6833,8602 6833,8235 6833,8235 Z"/>
         <path fill="none" stroke="rgb(0,0,0)" stroke-width="20" stroke-linejoin="round" d="M 6833,8235 L 8168,8235 8168,8602 6833,8602 6833,8235 6833,8235 Z"/>
        </g>
       </g>
       <g class="com.sun.star.drawing.CustomShape">
        <g id="id43">
         <rect class="BoundingBox" stroke="none" fill="none" x="6823" y="8658" width="1356" height="388"/>
         <path fill="rgb(255,255,102)" stroke="none" d="M 6833,8668 L 8168,8668 8168,9035 6833,9035 6833,8668 6833,8668 Z"/>
         <path fill="none" stroke="rgb(0,0,0)" stroke-width="20" stroke-linejoin="round" d="M 6833,8668 L 8168,8668 8168,9035 6833,9035 6833,8668 6833,8668 Z"/>
        </g>
       </g>
      </g>
      <g class="Group">
       <g class="com.sun.star.drawing.CustomShape">
        <g id="id44">
         <rect class="BoundingBox" stroke="none" fill="none" x="8095" y="2995" width="1512" height="1492"/>
         <path fill="rgb(255,255,255)" stroke="none" d="M 8100,3174 L 8100,3174 C 8100,3144 8108,3114 8124,3087 8139,3061 8161,3039 8188,3023 8215,3008 8246,3000 8277,3000 L 9424,3000 9424,3000 C 9455,3000 9486,3008 9513,3023 9540,3039 9562,3061 9577,3087 9593,3114 9601,3144 9601,3174 L 9601,3174 9601,4306 9601,4307 C 9601,4337 9593,4367 9577,4394 9562,4420 9540,4442 9513,4458 9486,4473 9455,4481 9424,4481 L 8276,4481 8277,4481 C 8246,4481 8215,4473 8188,4458 8161,4442 8139,4420 8124,4394 8108,4367 8100,4337 8100,4307 L 8100,3174 Z"/>
         <path fill="none" stroke="rgb(0,0,0)" stroke-width="10" stroke-linejoin="round" d="M 8100,3174 L 8100,3174 C 8100,3144 8108,3114 8124,3087 8139,3061 8161,3039 8188,3023 8215,3008 8246,3000 8277,3000 L 9424,3000 9424,3000 C 9455,3000 9486,3008 9513,3023 9540,3039 9562,3061 9577,3087 9593,3114 9601,3144 9601,3174 L 9601,3174 9601,4306 9601,4307 C 9601,4337 9593,4367 9577,4394 9562,4420 9540,4442 9513,4458 9486,4473 9455,4481 9424,4481 L 8276,4481 8277,4481 C 8246,4481 8215,4473 8188,4458 8161,4442 8139,4420 8124,4394 8108,4367 8100,4337 8100,4307 L 8100,3174 Z"/>
        </g>
       </g>
       <g class="com.sun.star.drawing.CustomShape">
        <g id="id45">
         <rect class="BoundingBox" stroke="none" fill="none" x="8173" y="3123" width="1357" height="388"/>
         <path fill="rgb(153,204,255)" stroke="none" d="M 8183,3133 L 9518,3133 9518,3500 8183,3500 8183,3133 8183,3133 Z"/>
         <path fill="none" stroke="rgb(0,0,0)" stroke-width="20" stroke-linejoin="round" d="M 8183,3133 L 9518,3133 9518,3500 8183,3500 8183,3133 8183,3133 Z"/>
        </g>
       </g>
       <g class="com.sun.star.drawing.CustomShape">
        <g id="id46">
         <rect class="BoundingBox" stroke="none" fill="none" x="8173" y="3555" width="1357" height="388"/>
         <path fill="rgb(243,160,140)" stroke="none" d="M 8183,3565 L 9518,3565 9518,3932 8183,3932 8183,3565 8183,3565 Z"/>
         <path fill="none" stroke="rgb(0,0,0)" stroke-width="20" stroke-linejoin="round" d="M 8183,3565 L 9518,3565 9518,3932 8183,3932 8183,3565 8183,3565 Z"/>
        </g>
       </g>
       <g class="com.sun.star.drawing.CustomShape">
        <g id="id47">
         <rect class="BoundingBox" stroke="none" fill="none" x="8173" y="3988" width="1357" height="388"/>
         <path fill="rgb(255,255,102)" stroke="none" d="M 8183,3998 L 9518,3998 9518,4365 8183,4365 8183,3998 8183,3998 Z"/>
         <path fill="none" stroke="rgb(0,0,0)" stroke-width="20" stroke-linejoin="round" d="M 8183,3998 L 9518,3998 9518,4365 8183,4365 8183,3998 8183,3998 Z"/>
        </g>
       </g>
      </g>
     </g>
    </g>
   </g>
  </g>
 </g>
</svg>